PathFileType	4	(X/Y/Z)	C:/Users/beibeiliu/ov580/test_trc/User1\sequence.9_training_dense_right.trc
DataRate	CameraRate	NumFrames	NumMarkers	Units	OrigDataRate	OrigDataStartFrame	OrigNumFrames
120	120	25	19	mm	120	79	314
Frame#	Time	ThumbCMC			ThumbMCP			ThumbIP			ThumbTip			IndexMCP			IndexPIP			IndexTip			MiddleMCP			MiddlePIP			MiddleTip			RingMCP			RingPIP			RingTip			PinkyMCP			PinkyPIP			PinkyTip			BackHand1			BackHand2			BackHand3	
		X0	Y0	Z0	X1	Y1	Z1	X2	Y2	Z2	X3	Y3	Z3	X4	Y4	Z4	X5	Y5	Z5	X6	Y6	Z6	X7	Y7	Z7	X8	Y8	Z8	X9	Y9	Z9	X10	Y10	Z10	X11	Y11	Z11	X12	Y12	Z12	X13	Y13	Z13	X14	Y14	Z14	X15	Y15	Z15	X16	Y16	Z16	X17	Y17	Z17	X18	Y18	Z18	
78	0.65	102.315	101.055	8.49845	95.7266	74.7636	-0.28492	80.916	52.8035	-18.3619	73.1876	36.62	-24.6679	106.964	111.447	-77.2293	101.029	105.45	-104.513	105.107	105.808	-131.991	120.92	138.309	-82.2087	119.717	143.081	-111.089	117.072	146.715	-139.494	144.734	155.047	-78.3067	142.845	163.23	-103.028	141.775	167.07	-126.414	177.197	159.989	-60.3863	184.557	166.663	-70.5876	183.998	181.025	-88.9878	138.395	155.021	-25.7727	134.157	160.852	7.54005	112.48	136.195	-11.793	
79	0.658333	100.556	105.331	4.94173	90.816	80.0205	-4.41195	82.9536	62.606	-17.5911	70.1348	45.9406	-26.4546	102.123	115.137	-82.1409	101.876	114.404	-109.011	100.64	109.171	-132.715	119.151	142.559	-84.0015	117.776	146.783	-111.133	114.48	152.538	-144.387	143.42	155.761	-75.834	141.611	165.096	-103.719	142.708	171.727	-129.059	177.942	162.118	-59.999	181.738	165.634	-74.9409	186.957	184.941	-88.5026	139.326	158.196	-25.1568	135.137	163.461	4.31971	111.455	139.358	-10.533	
80	0.666667	98.5541	115.262	4.92381	85.8467	88.9626	-8.38485	74.2354	72.4619	-21.6764	59.1371	58.0252	-23.7117	103.83	126.392	-83.8014	99.2699	121.643	-108.295	99.5654	119.605	-133.702	123.391	149.569	-86.8046	121.801	154.635	-113.542	117.183	157.421	-142.385	147.619	158.925	-77.2376	146.599	165.095	-103.065	146.472	172.343	-128.528	178.975	157.606	-62.2332	189.749	163.903	-76.5198	194.788	180.724	-91.6679	143.235	160.32	-26.7557	142.857	166.642	3.69809	114.034	146.658	-11.5348	
81	0.675	99.1278	125.99	3.76074	83.2548	103.057	-7.9579	65.9892	89.8999	-21.7037	52.7321	78.7713	-28.7706	102.074	134.273	-83.0471	98.782	131.064	-108.425	97.4687	129.683	-135.176	130.788	155.469	-90.1828	128.688	157.889	-118.112	124.404	161.309	-144.953	156.399	158.515	-80.6419	153.895	164.823	-107.018	159.871	171.294	-130.685	187.108	149.074	-64.6934	197.592	153.01	-76.9871	202.236	168.131	-90.6706	153.819	160.015	-26.4041	157.047	169.198	3.58448	124.218	156.332	-13.8915	
82	0.683333	98.4856	138.767	2.04048	80.2479	120.129	-9.03461	61.5545	110.321	-25.1396	42.3952	103.277	-28.835	109.474	142.823	-86.1408	103.918	140.705	-108.089	104.007	137.67	-132.031	137.527	154.958	-89.1367	133.927	157.587	-113.74	136.464	162.741	-148.478	163.817	152.889	-83.1385	164.414	158.343	-109.531	169.683	161.485	-130.223	189.949	136.902	-62.8259	202.898	137.231	-77.4555	210.158	149.267	-91.9797	164.266	156.762	-33.3714	165.629	166.324	-1.70605	131.069	160.524	-17.9993	
83	0.691667	108.246	151.764	1.13336	79.7155	138.445	-9.55884	60.234	133.554	-22.0022	39.2194	130.333	-27.7785	116.724	150.803	-84.9562	107.449	149.173	-111.358	104.22	146.576	-135.865	149.056	154.356	-89.6204	146.965	156.201	-116.367	148.089	159.036	-146.541	169.426	144.972	-80.4007	176.095	148.41	-105.812	178.447	153.024	-133.44	193.892	122.805	-66.0121	204.766	120.828	-81.1791	216.286	128.324	-94.2633	174.494	150.994	-32.8979	179.683	158.44	1.13036	142.903	165.984	-18.9246	
84	0.7	115.326	161.004	-0.792426	87.835	152.77	-12.2436	62.2978	153.657	-24.4395	44.5914	151.899	-29.2955	119.887	157.147	-87.4523	117.244	152.002	-113.04	113.923	149.905	-137.546	154.609	150.993	-89.7019	156.808	154.103	-120.844	162.295	154.15	-149.189	175.568	138.949	-84.0213	186.804	138.073	-106.867	186.209	140.34	-132.526	192.087	112.041	-59.2343	205.422	105.401	-74.1959	216.289	108.436	-94.3625	175.369	145.342	-35.389	185.165	151.354	-2.82159	153.312	163.7	-21.3363	
85	0.708333	122.995	166.757	-3.37107	93.8028	164.911	-11.1868	72.0215	166.607	-26.4138	50.6571	172.536	-28.5729	129.734	157.161	-86.0058	124.63	154.957	-112.207	121.885	151.466	-138.459	160.872	148.263	-93.9059	165.264	146.232	-117.141	169.358	146.765	-150.162	182.664	126.918	-82.3943	187.131	129.134	-105.681	195.362	124.95	-132.049	191.063	101.176	-61.179	201.471	93.9707	-73.3308	214.773	91.5973	-96.6089	179.788	137.858	-31.1061	188.914	142.261	1.78172	162.332	161.765	-17.0094	
86	0.716667	129.856	171.439	-3.18484	101.374	173.895	-8.75164	78.8382	181.635	-25.8677	61.2603	187.481	-27.5475	135.967	157.022	-88.9456	130.71	152.785	-109.515	129.45	148.028	-139.73	167.281	140.583	-90.8712	169.721	138.755	-118.861	171.908	136.767	-149.956	183.321	118.909	-82.6164	188.14	119.428	-107.988	192.167	116.037	-133.688	185.831	93.5378	-58.6931	195.733	85.1422	-75.0297	208.255	80.8089	-92.5746	182.011	129.404	-31.9703	194.294	136.155	0.58665	168.437	159.789	-20.5869	
87	0.725	138.709	172.605	0.048558	109.425	180.008	-13.4495	87.9768	190.513	-26.8703	71.3241	200.203	-32.6257	142.712	154.344	-87.8992	135.967	151.52	-109.03	131.614	149.996	-133.91	168.944	135.89	-92.2328	168.68	134.054	-117.154	173.888	126.532	-144.942	180.959	113.468	-80.4208	187.775	107.616	-105.63	189.841	103.925	-129.657	181.777	84.7818	-55.5827	187.72	75.2162	-71.9857	201.377	64.7071	-90.8001	185.489	123.261	-28.5668	192.723	128.199	0.699125	172.982	154.949	-16.0991	
88	0.733333	146.324	173.497	1.6662	118.219	186.603	-10.2242	100.869	194.695	-26.5062	84.4447	205.925	-35.2412	147.235	152.127	-85.7491	140.782	149.001	-112.287	135.006	147.392	-136.78	171.387	126.915	-90.365	170.758	124.606	-114.266	173.269	120.229	-144.852	176.949	108.484	-80.8342	183.178	100.532	-106.311	187.308	90.4744	-130.621	174.759	82.0561	-54.5549	180.587	65.8609	-69.7882	191.043	54.5111	-90.3885	181.536	119.2	-31.038	192.864	124.14	0.0388736	177.254	152.687	-17.6838	
89	0.741667	152.56	174.055	-3.51896	127.867	188.584	-11.2952	111.003	203.254	-28.6929	97.9545	212.911	-34.2213	149.739	152.593	-85.2319	142.382	152.247	-107.953	140.109	142.901	-136.057	169.949	123.474	-87.5326	169.936	120.968	-116.52	170.785	113.788	-145.965	174.643	102.952	-79.3842	178.543	92.3287	-101.316	179.456	86.6966	-126.778	169.009	75.0472	-52.0566	171.001	64.4777	-66.6875	179.675	50.7271	-83.7774	182.931	112.574	-26.4046	193.432	115.528	1.82194	180.998	150.572	-20.0484	
90	0.75	158.375	175.035	-0.669207	135.749	193.028	-14.0091	121.292	208.189	-32.0688	109.729	223.236	-36.0615	152.819	154.262	-86.6509	145.93	147.27	-108.38	139.946	143.749	-133.171	169.615	120.803	-85.5192	167.99	117.599	-114.884	168.571	108.635	-141.313	171.683	97.0014	-74.8973	173.666	87.9427	-104.332	173.217	78.0415	-127.829	162.271	74.8054	-50.7801	162.996	57.5856	-63.941	167.296	46.8775	-82.4425	180.444	111.596	-29.5733	192.701	116.188	6.16023	183.868	148.22	-19.4566	
91	0.758333	165.287	170.193	-2.59903	145.657	194.35	-16.1361	132.153	206.365	-29.1087	123.753	225.397	-36.4022	155.39	147.575	-86.1017	146.822	146.864	-112.481	139.573	140.177	-134.96	167.512	117.175	-87.4806	165.875	111.433	-118.019	163.485	102.676	-143.779	167.549	94.5446	-76.9505	168.306	81.1359	-103.281	164.347	75.6618	-124.995	156.088	69.8245	-47.3727	153.299	54.6317	-64.2685	155.946	42.2562	-80.4075	179.731	105.948	-29.8858	192.714	108.214	4.22639	185.869	142.705	-17.0456	
92	0.766667	171.146	169.085	-5.02167	153.13	188.333	-16.4516	143.419	208.364	-31.1031	134.808	222.628	-41.1395	155.902	146.615	-85.9327	147.598	143.654	-112.32	138.289	135.159	-133.973	165.284	113.102	-87.2657	160.697	108.822	-116.21	156.26	95.1523	-139.449	162.01	91.399	-75.8913	161.246	79.1818	-97.5382	154.764	66.7981	-125.995	148.992	65.5751	-48.7577	145.302	56.1121	-59.409	144.39	37.9577	-78.9223	178.159	100.618	-27.8329	192.367	101.387	5.41108	186.615	136.37	-17.7301	
93	0.775	177.605	164.196	-4.19552	162.518	189.092	-14.1056	153.138	207.116	-35.1123	148.86	226.219	-38.9743	156.676	141.77	-84.049	147.639	141.392	-108.024	134.841	130.632	-132.141	162.16	111.208	-84.629	154.785	100.145	-114.58	147.621	93.0292	-141.02	155.913	86.3514	-74.3254	152.076	76.0141	-95.9493	145.477	68.9434	-119.037	141.251	66.1817	-45.3636	135.145	52.0551	-55.2778	131.192	35.6851	-73.6602	174.952	93.785	-27.878	191.023	100.283	6.69155	189.935	130.332	-21.6331	
94	0.783333	183.116	158.927	-0.216812	171.343	185.09	-11.6979	163.699	205.929	-33.1504	157.86	223.506	-42.804	154.959	135.687	-83.1873	144.582	134.725	-108.164	133.784	132.748	-128.832	157.548	105.319	-84.3388	147.939	97.7737	-111.87	138.695	88.3175	-138.186	150.984	81.6693	-71.5286	143.589	71.1161	-92.641	135.098	61.6855	-114.836	136.256	69.1946	-42.1965	126.324	54.5075	-53.7556	120.106	34.7455	-71.0134	171.647	90.8124	-25.245	187.858	91.7931	2.49136	193.32	126.431	-17.6984	
95	0.791667	189.597	158.06	-2.65275	181.337	183.844	-13.227	173.119	203.861	-35.5611	169.116	217.708	-42.9177	157.175	136.398	-80.174	143.628	132.829	-104.82	131.514	130.517	-125.376	152.944	100.918	-79.2065	143.28	96.7739	-107.242	131.426	85.9972	-131.329	146.211	83.2889	-67.568	136.277	72.7011	-90.1148	124.911	63.1088	-111.821	130.343	68.5108	-40.241	116.879	54.4091	-49.7222	109.314	39.9503	-63.9663	172.531	90.1741	-24.3362	188.728	88.2589	3.89176	191.127	118.69	-20.5022	
96	0.8	197.605	154.311	-3.15609	187.647	177.483	-16.7693	185.038	197.186	-32.5098	185.092	215.766	-42.6496	159.664	136.01	-80.1535	147.754	135.723	-100.939	132.214	126.68	-120.928	150.816	103.743	-83.6518	139.061	95.6745	-104.774	128.731	91.0227	-128.152	140.21	83.0663	-63.9429	127.382	73.9316	-91.2081	116.939	70.3907	-113.127	125.335	69.5992	-33.4866	110.391	61.9147	-49.4134	103.354	45.9318	-59.6543	171.063	90.0322	-21.3541	188.38	87.4663	3.82625	195.657	116.308	-16.3271	
97	0.808333	204.636	150.913	-1.23468	199.53	173.164	-13.8053	202.437	195.813	-29.407	201.025	212.489	-41.3695	163.637	133.618	-77.7016	150.644	135.275	-100.036	136.247	131.154	-121.406	152.658	106.284	-82.7891	141.408	103.573	-104.025	126.868	95.8974	-129.93	137.068	86.7961	-66.783	124.93	79.0328	-85.8407	110.934	74.2992	-107.936	122.881	77.5085	-35.6384	104.841	66.2822	-44.4796	94.9072	51.5412	-59.09	167.866	87.8971	-21.9483	187.357	83.3238	4.38826	197.265	114.163	-17.342	
98	0.816667	211.765	146.526	3.438	211.679	171.712	-8.1277	211.984	190.858	-27.2193	218.278	211.333	-38.6788	169.579	135.321	-76.7512	157.105	136.516	-99.7206	145.806	138.693	-124.649	154.296	108.223	-80.8754	142.355	107.103	-106.314	130.956	105.69	-128.496	138.605	92.8468	-63.7023	125.69	88.0983	-86.4237	112.036	85.5129	-107.595	120.571	82.6652	-32.0804	104.274	78.2062	-49.4149	91.6237	66.0158	-61.4513	169.976	91.7256	-20.2766	185.35	81.8219	8.60054	199.024	114.031	-18.0307	
99	0.825	216.36	142.458	3.21521	217.709	167.704	-7.29604	223.953	188.765	-26.9691	233.066	207.269	-35.5976	178.763	139.645	-76.3491	168.797	141.911	-98.9782	153.561	142.214	-125.197	160.797	114.032	-82.0447	148.174	113.346	-104.056	135.879	112.863	-131.345	139.85	99.0908	-67.1036	125.34	94.1369	-89.5689	112.144	92.8226	-110.199	117.844	89.2849	-36.0955	101.554	85.8877	-45.7834	89.9497	75.9043	-64.0386	166.732	92.7599	-22.4745	181.375	79.8753	7.89977	200.004	111.552	-14.6828	
100	0.833333	217.456	138.31	7.2117	226.539	164.531	-3.37159	233.681	184.19	-18.7129	240.03	200.877	-32.6627	183.191	138.611	-74.6878	176.636	143.281	-100.807	164.389	144.311	-120.991	163.42	116.402	-79.3215	152.457	116.48	-105.665	141.787	117.882	-130.924	142.781	103.609	-65.7918	130.815	102.367	-91.4578	115.975	102.637	-115.827	121.094	98.9144	-37.7146	106.183	97.9544	-50.1457	88.1005	88.6672	-64.7038	169.208	96.1941	-20.7105	177.595	80.9539	7.88865	201.359	107.926	-13.3652	
101	0.841667	220.976	136.978	7.34927	227.312	160.772	-2.94432	242.84	179.8	-18.3155	252.184	194.471	-22.7215	193.958	140.618	-75.586	187.501	144.412	-98.3545	175.045	146.569	-124.34	168.938	117.768	-81.3087	161.921	120.856	-104.806	150.059	121.872	-135.905	148.108	109.319	-69.766	134.866	108.485	-93.1757	123.264	110.085	-116.714	124.223	106.449	-41.2127	105.655	106.345	-54.5996	90.9781	97.8868	-70.6177	167.993	95.6864	-18.1532	177.2	83.8232	9.97143	200.14	105.883	-11.6196	
102	0.85	218.526	131.262	11.5691	232.515	155.403	2.83403	248.778	173.582	-13.3374	256.806	187.126	-17.9764	198.954	136.282	-71.0961	194.358	140.148	-96.2862	186.051	144.532	-122.648	174.463	116.806	-78.7814	166.928	118.958	-107.369	155.508	120.631	-137.901	149.643	109.917	-68.0486	140.614	110.498	-93.9979	130.112	112.066	-117.677	123.259	109.707	-46.4896	108.302	111.31	-57.1893	93.1957	106.008	-73.2504	168.559	96.5147	-23.973	173.205	80.6598	10.3973	199.52	102.744	-9.17566	
